<svg preserveAspectRatio="xMidYMid meet" viewBox="212.992 86.016 585.728 657.408" xmlns="http://www.w3.org/2000/svg" version="1.0" style="max-height: 500px" width="24" height="auto">

 <g fill="#267074">
  <path d="M474.95 732.05 c-2.15 -0.70 -3.45 -1.55 -10.70 -6.80 -3.85 -2.80 -8.10 -5.85 -9.45 -6.80 -1.35 -0.95 -3.25 -2.30 -4.25 -3 -7.95 -5.65 -23.20 -16.45 -32.55 -23.05 -6.25 -4.40 -12.50 -9.25 -14.05 -10.90 -4.45 -4.60 -5.75 -9.15 -4.45 -16.05 0.30 -1.50 1.40 -8.30 2.50 -15.20 1.10 -6.85 2.20 -13.60 2.45 -15 0.30 -1.35 1 -5.55 1.55 -9.25 0.60 -3.70 1.40 -8.65 1.80 -11 0.45 -2.35 1.20 -6.95 1.70 -10.25 0.55 -3.30 1.20 -7.25 1.50 -8.75 0.30 -1.50 0.75 -4.10 1 -5.75 0.45 -3.10 5.35 -31.95 8 -47 3.45 -19.85 6.35 -35.10 6.85 -35.90 0.20 -0.35 -1 -0.40 -3.65 -0.15 -14.80 1.30 -31.60 1.40 -38.70 0.20 -9.80 -1.60 -19.95 -6 -26.50 -11.55 -6.95 -5.85 -12.80 -14.30 -15.60 -22.60 -1.05 -3.15 -1.65 -3.95 -5.90 -8.25 -5 -5.05 -7.20 -8.45 -8.85 -13.75 -0.80 -2.60 -0.90 -4.75 -0.85 -16.50 0 -13.60 0.45 -18.65 2.50 -28.65 2.05 -10.40 6.40 -18.75 14.20 -27.25 l3.10 -3.35 -3.70 -3.90 c-4.55 -4.75 -6.65 -7.75 -8.60 -12.35 l-1.55 -3.50 0 -18.75 c0 -14.30 0.15 -19.20 0.65 -20.75 2.70 -7.95 6.95 -12.55 14.25 -15.15 3.50 -1.30 3.95 -1.30 18.40 -1.50 l14.85 -0.20 0.65 -2.30 c1.75 -6.30 9.25 -22.05 13.70 -28.80 1.25 -1.90 2.25 -3.55 2.25 -3.65 0 -0.10 -1.75 -2.35 -3.90 -5.05 -5.05 -6.30 -6.70 -8.60 -11.20 -15.85 -8.30 -13.25 -15.90 -31.15 -18.50 -43.50 -0.25 -1.35 -0.70 -3.50 -0.95 -4.75 -2.85 -13.85 -2.70 -34.80 0.35 -49.25 1.30 -6.25 1.75 -7.90 3.80 -14.25 3.40 -10.50 5.20 -13.60 9.45 -16.25 2.15 -1.40 6.50 -2.75 8.70 -2.75 2.80 0 7.50 1.95 10.50 4.40 4.05 3.30 7.40 9.10 26 45.10 4.60 8.95 9.35 18.05 10.50 20.25 4.80 9.05 19.30 35.80 20.60 38 0.55 0.90 0.70 0.90 5.75 -0.65 12.80 -4 28.20 -5.75 40.50 -4.65 18.90 1.75 29.10 4 43.80 9.90 3.10 1.25 5.75 2.20 5.80 2.10 0.10 -0.10 0.40 -8.30 0.75 -18.20 0.95 -30.45 0.70 -53 -1 -79.50 -0.55 -8.70 -0.55 -9.10 0.45 -11 1.35 -2.65 3.75 -4.90 7.10 -6.55 2.25 -1.15 3.40 -1.40 6.25 -1.35 6.85 0.05 21.85 6.30 31.25 12.95 5.65 4.05 15.85 13.85 20.25 19.45 6.95 8.85 14.20 21.80 17.15 30.50 7.10 20.80 7.75 41.35 2.10 63.50 -2.55 9.90 -6.55 20.35 -11.75 30.70 l-3.20 6.45 2.40 4.20 c1.30 2.25 3.05 5.30 3.90 6.65 1.70 2.85 3.55 7.45 5.10 12.50 1.05 3.60 4.20 16.90 4.80 20.50 0.25 1.75 0.65 2.20 2.75 3.45 5.15 3.10 10.85 10 14 17 3.75 8.20 5.25 16.75 4.90 27.55 -0.35 10.65 -2.80 20.05 -7.60 29.60 -1.65 3.30 -5.45 8.60 -7.15 10 -0.65 0.50 -0.65 1.30 0.05 6.25 3.55 26.05 6.15 57.15 9.30 111.15 0.25 4.70 0.70 12.35 1 17 0.25 4.70 0.70 13.35 1 19.25 0.30 5.90 0.75 14.60 1 19.25 0.25 4.70 0.75 14.60 1.05 22 0.80 19.75 1.50 18.50 -18.05 31.45 -7.55 5 -17.45 11.55 -22 14.50 -4.55 2.95 -15.85 10.35 -25.15 16.45 -26.40 17.40 -30.80 20.25 -43.85 28.70 -12.70 8.25 -18.70 12.20 -43.45 28.50 -8.10 5.35 -15.65 10.20 -16.75 10.75 -2.25 1.15 -8.10 1.70 -10.35 0.95z m18.75 -28.55 c6.50 -4.25 17.70 -11.60 24.95 -16.35 7.20 -4.70 16.35 -10.70 20.35 -13.30 4 -2.65 15.80 -10.35 26.25 -17.15 10.45 -6.80 22.95 -14.90 27.75 -18.05 11.35 -7.45 22.50 -14.75 33.95 -22.20 l9.15 -5.95 -0.30 -4.90 c-0.20 -2.65 -0.55 -10.15 -0.80 -16.60 -1.05 -25 -2.50 -51.10 -5 -90.85 -1.30 -21.25 -3.85 -53.25 -4.95 -63.40 -0.25 -2.20 -0.85 -7.65 -1.35 -12.10 l-0.90 -8.15 -2.50 0 c-1.40 0 -3 -0.15 -3.55 -0.25 -0.85 -0.25 -1.35 0.40 -3.15 3.90 -5.75 11.05 -18.15 24.10 -30.45 32.05 -5.20 3.35 -13.85 7.60 -19.25 9.45 -4.30 1.50 -4.95 1.90 -7.90 4.90 -2.50 2.50 -3.95 3.55 -6.25 4.40 -2.80 1.05 -3.55 1.10 -15.50 0.95 -12.45 -0.15 -12.50 -0.15 -15 -1.50 -3.30 -1.75 -5.40 -4.05 -6.95 -7.55 -1.55 -3.40 -1.75 -7.90 -0.50 -11.50 1 -3 4.65 -7.05 7.90 -8.75 l2.55 -1.35 12.25 0.10 c12.95 0.15 14.80 0.45 18.15 2.80 1.85 1.25 2.90 1.20 6.85 -0.40 11 -4.55 18.20 -9.30 26.25 -17.45 5.50 -5.55 9 -10.10 11.80 -15.50 l1.85 -3.50 -2.65 -2.90 c-8.15 -8.80 -12.20 -22.80 -11.60 -39.95 0.30 -8.40 1.40 -14.65 3.50 -19.95 0.75 -1.75 1.25 -3.30 1.15 -3.40 -0.10 -0.10 -5.30 -0.30 -11.50 -0.45 l-11.30 -0.30 0 5.20 c0 7.30 -0.85 16.05 -2.05 20.35 -3.65 13.55 -13.25 24.30 -28.05 31.30 -7.10 3.35 -8.35 3.65 -18.95 4.35 -10.40 0.70 -22.80 0.35 -27.95 -0.80 -8.65 -1.85 -16.75 -5.95 -23.70 -12.05 -7.70 -6.70 -12.75 -14.85 -15.90 -25.70 -1.20 -4.15 -2.50 -15.30 -2.30 -19.45 l0.15 -3.25 -2.50 -0.65 c-3.45 -0.90 -11.45 -1.60 -14.85 -1.30 -2.90 0.25 -2.90 0.30 -2.90 1.90 0 5.35 -2.55 7.40 -28.25 22.75 -24.70 14.75 -33.70 21 -41.05 28.60 -4.20 4.35 -8.70 10.30 -8.70 11.50 0 0.85 5.75 5.70 10.30 8.70 2.40 1.55 3.95 2.20 5.95 2.45 4.90 0.65 8.35 -0.30 22.75 -6.15 9.70 -3.90 11.55 -4.40 13.90 -3.65 3.25 1 5.85 4.05 6.40 7.50 0.40 2.45 -0.75 5.85 -2.45 7.45 -1.10 1 -25.15 10.90 -27.90 11.45 -0.80 0.15 -1.60 0.50 -1.75 0.70 -0.15 0.25 -0.30 4.55 -0.30 9.60 0 7.15 0.15 9.70 0.85 12 1.60 5.50 5.65 7.90 13.40 7.95 2.35 0 5.45 -0.25 6.90 -0.60 4.10 -0.95 9.60 -3.85 14.25 -7.60 5.55 -4.45 5.80 -4.55 9 -4.15 3.05 0.35 5.45 1.80 7.10 4.25 1.70 2.55 1.40 6.75 -0.75 9.35 -5.15 6.45 -17.65 13.30 -28.15 15.45 -5.75 1.15 -15.80 0.75 -20.50 -0.80 -4 -1.35 -7.20 -3.10 -9.50 -5.30 l-1.75 -1.65 -3 1.45 c-1.65 0.80 -3.30 1.50 -3.60 1.50 -1 0 -0.75 0.70 1.15 3.30 5.65 7.55 12.95 12.50 20.95 14.15 10.90 2.25 28.55 2.05 43.25 -0.50 11.20 -1.95 24.20 -5.60 33.60 -9.50 4 -1.65 4.75 -1.75 7.10 -0.75 6.70 2.80 7.90 13.35 1.85 16.70 -2.25 1.30 -10.90 4.55 -16.80 6.35 -2.45 0.80 -4.70 1.55 -4.90 1.75 -0.40 0.35 -3.05 12.75 -4.85 22.75 -0.55 3.05 -1.45 8.10 -2 11.25 -0.60 3.15 -1.25 6.90 -1.50 8.25 -0.75 4.15 -3.55 20.30 -4 23.25 -0.25 1.50 -1.80 10.85 -3.50 20.75 -1.65 9.90 -3.25 19.35 -3.50 21 -0.25 1.65 -1 6.50 -1.75 10.75 -1.40 8.25 -3.65 22.25 -5.30 32.50 -0.95 6.15 -1.65 10.20 -2.45 14.35 l-0.40 2.15 3.85 2.80 c2.10 1.50 6.85 4.90 10.55 7.50 8.65 6.10 24.90 17.55 37.15 26.30 l9.60 6.80 1.30 -0.80 c0.70 -0.45 6.65 -4.35 13.15 -8.60z m-135 -250.15 l1.30 -0.85 0 -11.70 0 -11.70 -2.75 -1.10 c-3.10 -1.25 -7.60 -4.25 -10.30 -6.85 -1.15 -1.05 -1.95 -1.55 -2.15 -1.20 -0.65 1 -1.25 16.75 -0.85 21.30 0.60 6.70 2.55 10.60 6.25 12.35 2.45 1.15 6.55 1 8.50 -0.25z m266.40 -58.95 c3.20 -1.70 4.55 -3.20 6.55 -7.15 4.35 -8.85 6.15 -20.40 4.65 -30.10 -1.80 -11.70 -5.75 -18.85 -12.05 -21.70 -4.05 -1.85 -7.45 -0.95 -11.35 3.05 -6.20 6.35 -9.35 16.60 -8.75 28.90 0.30 7.45 1.45 12.85 3.65 17.55 2.80 6 5.45 8.70 10.15 10.35 2.75 1 3.90 0.85 7.15 -0.90z m-100 -14.35 c7.70 -2 14.15 -6.40 18.15 -12.45 4.45 -6.70 4.50 -6.85 4.65 -27.65 l0.15 -18.30 -2 -1.80 -2.05 -1.85 -36.35 0 -36.30 0 -2.20 2.30 -2.20 2.30 0.15 15.55 c0.25 17.30 0.40 18.45 3.75 25.35 2.60 5.35 8.95 11.65 14.15 14.15 3.40 1.60 7.80 2.95 11.75 3.55 0.85 0.10 6.70 0.15 13 0.05 9.40 -0.20 12.20 -0.40 15.35 -1.20z m-155.70 -21.90 c4.10 -2.70 7.85 -5.10 8.30 -5.40 0.75 -0.45 0.70 -0.80 -0.50 -3.75 -1.20 -2.80 -1.40 -3.95 -1.40 -8.25 0 -5.40 0.75 -8.45 2.20 -9.25 1.45 -0.75 8 -0.60 10.95 0.30 1.45 0.40 3.20 1.35 3.85 2.05 1.05 1.15 1.20 1.80 1.20 5.20 0 2.20 0.20 3.95 0.45 3.95 0.50 0 10.40 -6 13.45 -8.15 l2.10 -1.50 0 -5.10 c0 -5.50 -0.30 -6.25 -3.50 -9.10 l-1.25 -1.10 -25.05 -0.05 -25 0 -1.55 1.65 c-0.85 0.85 -1.80 2.10 -2.10 2.70 -0.35 0.70 -0.55 5.60 -0.55 14.65 l0 13.55 1.35 2.85 c1.40 3 7.50 9.60 8.85 9.60 0.40 0 4.10 -2.20 8.20 -4.85z m234.70 -37.15 c2.70 -2.05 7.10 -4 9 -4 0.95 0 1 -0.20 0.65 -2.30 -0.95 -6.40 -4 -15.70 -7.15 -21.95 -1.90 -3.75 -3.10 -5.30 -6.95 -9.05 l-4.65 -4.50 0 -2.55 c0 -1.75 0.30 -2.90 1 -3.75 5.45 -7 13.35 -23.30 16.50 -34.10 8.35 -28.90 4.90 -55.70 -9.90 -77.85 -6.25 -9.30 -13.05 -16.35 -21.60 -22.50 -3.70 -2.65 -12.35 -7.25 -12.80 -6.85 -0.10 0.15 0.05 3.15 0.35 6.70 0.80 9.25 0.85 67.10 0.05 81.20 -0.90 16 -2.30 32.75 -3.15 37.85 -0.85 4.95 -3.30 6.90 -8.65 6.85 -4.05 0 -5.85 -0.75 -8.20 -3.40 -2.15 -2.45 -2.80 -5.20 -2.25 -9.15 0.25 -1.70 0.35 -3.35 0.20 -3.55 -1 -1.50 -12.80 -6.85 -21.05 -9.50 -11.85 -3.80 -18.35 -4.80 -31 -4.75 -10.45 0 -14 0.40 -23.25 2.65 -24.40 5.80 -47.15 22.35 -60.95 44.25 -4.45 7.05 -9.30 16.60 -9.30 18.25 0 0.20 1.85 0.50 4.15 0.65 4.65 0.35 9.35 1.70 12.50 3.50 4.60 2.70 8.70 8.30 9.55 13 l0.35 1.85 3.60 0 c2 0 6.65 0.35 10.35 0.75 3.70 0.40 7 0.75 7.30 0.75 0.35 0 0.85 -0.95 1.15 -2.10 1.40 -5.45 7.05 -11.90 12.90 -14.70 6.75 -3.25 6.85 -3.25 46.35 -3.10 l35.55 0.15 3.25 1.20 c4.70 1.70 7.45 3.20 10.10 5.50 3.05 2.70 6.20 7.50 7.20 10.85 l0.75 2.70 3.85 0 c9.30 0 29.60 1.80 30.50 2.75 0.50 0.50 1.10 0.25 3.70 -1.75z m-188.90 -75.85 c4.75 -4.50 12.05 -10.20 17.25 -13.40 l3 -1.85 -1.15 -2.10 c-2 -3.45 -14.30 -26.35 -20.45 -38.05 -11.55 -22.05 -13.50 -25.75 -20.35 -39.40 -3.85 -7.60 -7.15 -13.85 -7.35 -13.90 -0.50 -0.05 -1.40 3 -2.85 9.80 -2.30 10.50 -2.55 13.05 -2.55 25.75 0 10.60 0.20 13.05 1.15 18.25 2.90 15.35 7.80 28.05 16 41.75 3.35 5.55 11.85 17.50 12.45 17.50 0.15 0 2.30 -1.95 4.85 -4.35z"/>
  <path d="M512.50 359.50 c-6.15 -0.75 -9.30 -4.25 -9.85 -10.95 -0.55 -6.50 1.65 -11.40 6.10 -13.55 3.50 -1.70 9.60 -1.60 13.10 0.20 4.30 2.15 6.25 5.85 6.25 11.75 -0.05 9.35 -5.50 13.75 -15.60 12.55z"/>
 </g>
</svg>
